<?xml version="1.0" encoding="UTF-8" standalone="no"?>
<!-- Created with Inkscape (http://www.inkscape.org/) -->

<svg
   xmlns:dc="http://purl.org/dc/elements/1.1/"
   xmlns:cc="http://creativecommons.org/ns#"
   xmlns:rdf="http://www.w3.org/1999/02/22-rdf-syntax-ns#"
   xmlns:svg="http://www.w3.org/2000/svg"
   xmlns="http://www.w3.org/2000/svg"
   xmlns:sodipodi="http://sodipodi.sourceforge.net/DTD/sodipodi-0.dtd"
   xmlns:inkscape="http://www.inkscape.org/namespaces/inkscape"
   width="64px"
   height="64px"
   id="svg2985"
   version="1.1"
   inkscape:version="0.48.0 r9654"
   sodipodi:docname="downmarker.svg">
  <defs
     id="defs2987" />
  <sodipodi:namedview
     id="base"
     pagecolor="#ffffff"
     bordercolor="#666666"
     borderopacity="1.0"
     inkscape:pageopacity="0.0"
     inkscape:pageshadow="2"
     inkscape:zoom="5.5"
     inkscape:cx="30.349248"
     inkscape:cy="24.727272"
     inkscape:current-layer="layer1"
     showgrid="true"
     inkscape:document-units="px"
     inkscape:grid-bbox="true"
     inkscape:window-width="726"
     inkscape:window-height="648"
     inkscape:window-x="1799"
     inkscape:window-y="126"
     inkscape:window-maximized="0">
    <inkscape:grid
       type="xygrid"
       id="grid2993"
       empspacing="2"
       visible="true"
       enabled="true"
       snapvisiblegridlinesonly="true" />
  </sodipodi:namedview>
  <metadata
     id="metadata2990">
    <rdf:RDF>
      <cc:Work
         rdf:about="">
        <dc:format>image/svg+xml</dc:format>
        <dc:type
           rdf:resource="http://purl.org/dc/dcmitype/StillImage" />
        <dc:title />
      </cc:Work>
    </rdf:RDF>
  </metadata>
  <g
     id="layer1"
     inkscape:label="Layer 1"
     inkscape:groupmode="layer">
    <path
       style="fill:#ffffff;fill-opacity:1"
       d="M 17.045611,48.20841 2,38 l 10.009783,0.101404 10.009781,0 0,-22.050712 L 22,6 42,6 c 0.05472,4.015957 0.109438,6.031914 0.164157,10.047871 l 0,22.047853 9.917919,0.06545 L 62,38.226564 47.045629,48.270911 32.091234,58.315258 17.045611,48.208267 l 0,0 z"
       id="path3009-3"
       inkscape:connector-curvature="0"
       sodipodi:nodetypes="cccccccccccccccc" />
    <path
       style="fill:#ff6600;stroke:#ffffff;stroke-opacity:1"
       d="m 21.018199,47.915462 -10.999527,-7.333644 7.317937,0 7.317936,0 0,-16 0,-15.9999998 7.363637,0 7.363636,0 0,15.9979378 0,15.997937 7.25078,0.04752 7.250778,0.04752 -10.932823,7.288189 -10.932826,7.288189 -10.999528,-7.333643 0,0 z"
       id="path3009"
       inkscape:connector-curvature="0" />
    <rect
       style="fill:#ff6600;fill-opacity:1;stroke:#ffffff;stroke-opacity:1;stroke-width:1;stroke-miterlimit:4;stroke-dasharray:none"
       id="rect3816"
       width="48"
       height="4"
       x="8"
       y="56" />
  </g>
</svg>
